<svg width="24" height="24" viewBox="0 0 24 24" fill="none"
  xmlns="http://www.w3.org/2000/svg">
  <path d="M15.5 7C14.6716 7 14 7.67157 14 8.5C14 9.32843 14.6716 10 15.5 10C16.3284 10 17 9.32843 17 8.5C17 7.67157 16.3284 7 15.5 7Z" fill="currentColor"/>
  <path fill-rule="evenodd" clip-rule="evenodd" d="M15.5 2C11.9101 2 9 4.91015 9 8.5C9 8.84233 9.02655 9.17901 9.07783 9.50796L3.87868 14.7071C3.31607 15.2697 3 16.0328 3 16.8284V19C3 20.1046 3.89543 21 5 21H7.17157C7.96722 21 8.73028 20.6839 9.29289 20.1213L10.7071 18.7071C10.8946 18.5196 11 18.2652 11 18V16.5H12.5C12.7652 16.5 13.0196 16.3946 13.2071 16.2071L14.492 14.9222C14.821 14.9734 15.1577 15 15.5 15C19.0899 15 22 12.0899 22 8.5C22 4.91015 19.0899 2 15.5 2ZM11 8.5C11 6.01472 13.0147 4 15.5 4C17.9853 4 20 6.01472 20 8.5C20 10.9853 17.9853 13 15.5 13C15.1214 13 14.755 12.9535 14.4057 12.8663C14.065 12.7812 13.7047 12.8811 13.4564 13.1294L12.0858 14.5H10C9.44772 14.5 9 14.9477 9 15.5V17.5858L7.87868 18.7071C7.69114 18.8946 7.43679 19 7.17157 19H5V16.8284C5 16.5632 5.10536 16.3089 5.29289 16.1213L10.8706 10.5436C11.1189 10.2953 11.2188 9.93497 11.1337 9.59428C11.0465 9.24501 11 8.87864 11 8.5Z" fill="currentColor"/>
</svg>
