<svg xmlns="http://www.w3.org/2000/svg" width="24" height="24" viewBox="0 0 24 24">
  <path fill="currentColor" fill-rule="evenodd" d="M11.025 2.278a3 3 0 0 1 1.95 0l6 2.062A3 3 0 0 1 21 7.177v4.735c0 2.807-1.149 4.83-2.813 6.405-1.572 1.488-3.632 2.6-5.555 3.636l-.157.085a1 1 0 0 1-.95 0l-.157-.085c-1.923-1.037-3.983-2.148-5.556-3.636C4.15 16.742 3 14.719 3 11.912V7.177A3 3 0 0 1 5.025 4.34l6-2.062Zm1.3 1.891a1 1 0 0 0-.65 0l-6 2.063A1 1 0 0 0 5 7.177v4.735c0 2.166.851 3.687 2.188 4.952 1.276 1.209 2.964 2.158 4.812 3.157 1.848-1 3.536-1.948 4.813-3.157C18.148 15.6 19 14.078 19 11.912V7.177a1 1 0 0 0-.675-.945l-6-2.063Z" clip-rule="evenodd"/>
  <path fill="currentColor" d="M9.624 9.178c0-1.38 1.11-2.515 2.5-2.515s2.5 1.135 2.5 2.515c0 1.128-.744 1.716-1.18 2.013a1.18 1.18 0 0 0-.294.262.762.762 0 0 0-.14.359 1 1 0 1 1-1.977-.297c.159-1.055.778-1.633 1.286-1.978a1.1 1.1 0 0 0 .267-.226.174.174 0 0 0 .027-.048.262.262 0 0 0 .01-.085.507.507 0 0 0-.5-.515c-.267 0-.5.221-.5.515a1 1 0 0 1-2 0ZM10.75 14.5a1.25 1.25 0 1 0 2.5 0 1.25 1.25 0 0 0-2.5 0Z"/>
</svg>
