<svg xmlns="http://www.w3.org/2000/svg" width="24" height="24" viewBox="0 0 24 24">
  <path fill="currentColor" d="M12 7.5a1 1 0 0 1 1 1v2a1 1 0 1 1-2 0v-2a1 1 0 0 1 1-1Zm-1.25 6a1.25 1.25 0 1 1 2.5 0 1.25 1.25 0 0 1-2.5 0Z"/>
  <path fill="currentColor" fill-rule="evenodd" d="M12.975 2.278a3 3 0 0 0-1.95 0l-6 2.062A3 3 0 0 0 3 7.177v4.735c0 2.807 1.149 4.83 2.813 6.405 1.572 1.488 3.632 2.6 5.555 3.636l.157.085a1 1 0 0 0 .95 0l.157-.085c1.923-1.037 3.983-2.148 5.556-3.636C19.85 16.742 21 14.719 21 11.912V7.177a3 3 0 0 0-2.025-2.837l-6-2.062Zm-1.3 1.891a1 1 0 0 1 .65 0l6 2.063a1 1 0 0 1 .675.945v4.735c0 2.166-.851 3.687-2.188 4.952-1.276 1.209-2.964 2.158-4.812 3.157-1.848-1-3.536-1.948-4.813-3.157C5.851 15.6 5 14.078 5 11.912V7.177a1 1 0 0 1 .675-.945l6-2.063Z" clip-rule="evenodd"/>
</svg>
