<svg xmlns="http://www.w3.org/2000/svg" width="24" height="24" fill="none" viewBox="0 0 24 24">
  <path
    d="M6 11C5.44772 11 5 11.4477 5 12C5 12.5523 5.44772 13 6 13H18C18.5523 13 19 12.5523 19 12C19 11.4477 18.5523 11 18 11H6Z"
    fill="currentColor" />
  <path fill-rule="evenodd" clip-rule="evenodd"
    d="M6 6C2.68629 6 0 8.68629 0 12C0 15.3137 2.68629 18 6 18H18C21.3137 18 24 15.3137 24 12C24 8.68629 21.3137 6 18 6H6ZM2 12C2 9.79086 3.79086 8 6 8H18C20.2091 8 22 9.79086 22 12C22 14.2091 20.2091 16 18 16H6C3.79086 16 2 14.2091 2 12Z"
    fill="currentColor" />
</svg>